<?xml version="1.0" encoding="iso-8859-1"?>
<!-- Generator: Adobe Illustrator 19.0.0, SVG Export Plug-In . SVG Version: 6.00 Build 0)  -->
<svg version="1.1" id="Capa_1" xmlns="http://www.w3.org/2000/svg" xmlns:xlink="http://www.w3.org/1999/xlink" x="0px" y="0px"
	 viewBox="0 0 480 480" style="enable-background:new 0 0 480 480;" xml:space="preserve">
<path style="fill:#FFF1D0;" d="M472,40c0-17.672-14.328-32-32-32H40C22.328,8,8,22.328,8,40v288h464V40z"/>
<rect x="224" y="376" style="fill:#086788;" width="32" height="48"/>
<g>
	<path style="fill:#06AED5;" d="M152,424c-17.672,0-32,14.328-32,32v16h240v-16c0-17.672-14.328-32-32-32h-72h-32H152z"/>
	<path style="fill:#06AED5;" d="M40,376h184h32h184c17.672,0,32-14.328,32-32v-16H8v16C8,361.672,22.328,376,40,376z"/>
</g>
<rect x="32" y="128" style="fill:#FFB40E;" width="128" height="112"/>
<g>
	<path style="fill:#242A40;" d="M440,0H40C17.944,0,0,17.944,0,40v288v16c0,22.056,17.944,40,40,40h176v32h-64
		c-22.056,0-40,17.944-40,40v16c0,4.416,3.584,8,8,8h240c4.416,0,8-3.584,8-8v-16c0-22.056-17.944-40-40-40h-64v-32h176
		c22.056,0,40-17.944,40-40v-16V40C480,17.944,462.056,0,440,0z M40,16h400c13.232,0,24,10.768,24,24v280H16V40
		C16,26.768,26.768,16,40,16z M352,456v8H128v-8c0-13.232,10.768-24,24-24h72h32h72C341.232,432,352,442.768,352,456z M248,416h-16
		v-32h16V416z M464,344c0,13.232-10.768,24-24,24H256h-32H40c-13.232,0-24-10.768-24-24v-8h448V344z"/>
	<path style="fill:#242A40;" d="M179,110.248l9.992-12.496l-33.016-26.416l33.68-33.68l-11.312-11.312l-40,40
		c-1.608,1.608-2.456,3.832-2.336,6.096c0.128,2.272,1.216,4.384,2.992,5.808L179,110.248z"/>
	
		<rect x="232.014" y="24.739" transform="matrix(-0.8321 0.5547 -0.5547 -0.8321 477.4453 -8.5345)" style="fill:#242A40;" width="16.001" height="86.54"/>
	<path style="fill:#242A40;" d="M291,97.752l9.992,12.496l40-32c1.776-1.424,2.864-3.528,2.992-5.808
		c0.128-2.272-0.72-4.488-2.336-6.096l-40-40l-11.312,11.312l33.68,33.68L291,97.752z"/>
	<polygon style="fill:#242A40;" points="160,224 144,224 144,144 128,144 128,224 104,224 104,128 88,128 88,224 64,224 64,176 
		48,176 48,224 32,224 32,240 160,240 	"/>
	<path style="fill:#242A40;" d="M211,217.752l-80,64l9.992,12.496l75.576-60.456l59.192,37c3.512,2.2,8.144,1.336,10.64-1.984
		l66.472-88.624l49.48,49.48c2.024,2.016,4.984,2.824,7.728,2.072c2.76-0.744,4.92-2.904,5.656-5.664l32-120l-15.464-4.128
		L403.84,208.528l-46.184-46.184c-1.64-1.64-3.936-2.464-6.224-2.328c-2.312,0.168-4.44,1.328-5.832,3.176l-67.592,90.12
		l-57.768-36.104C217.368,215.416,213.664,215.624,211,217.752z"/>
	<rect x="344" y="280" style="fill:#242A40;" width="16" height="16"/>
	<rect x="384" y="280" style="fill:#242A40;" width="16" height="16"/>
	<rect x="424" y="280" style="fill:#242A40;" width="16" height="16"/>
</g>
<g>
</g>
<g>
</g>
<g>
</g>
<g>
</g>
<g>
</g>
<g>
</g>
<g>
</g>
<g>
</g>
<g>
</g>
<g>
</g>
<g>
</g>
<g>
</g>
<g>
</g>
<g>
</g>
<g>
</g>
</svg>
