<svg height="512pt" viewBox="0 0 511 512" width="512pt" xmlns="http://www.w3.org/2000/svg" xmlns:xlink="http://www.w3.org/1999/xlink"><linearGradient id="a" gradientUnits="userSpaceOnUse" x1=".4998007532" x2="511.3212260074" y1="256.0001413803" y2="256.0001413803"><stop offset="0" stop-color="#00f2fe"/><stop offset=".0208" stop-color="#03effe"/><stop offset=".2931" stop-color="#24d2fe"/><stop offset=".5538" stop-color="#3cbdfe"/><stop offset=".7956" stop-color="#4ab0fe"/><stop offset="1" stop-color="#4facfe"/></linearGradient><path d="m447.753906 274.238281c6.308594 9.042969 16.785156 14.964844 28.648438 14.964844 19.285156 0 34.917968-15.632813 34.917968-34.917969s-15.632812-34.917968-34.917968-34.917968c-11.863282 0-22.339844 5.921874-28.648438 14.964843h-171.882812v-49.882812h160.625c5.292968 0 10.367187-2.101563 14.109375-5.84375l39.90625-39.90625c3.742187-3.746094 5.84375-8.820313 5.84375-14.113281v-61.019532c9.042969-6.308594 14.964843-16.785156 14.964843-28.648437 0-19.285157-15.632812-34.917969-34.917968-34.917969s-34.917969 15.632812-34.917969 34.917969c0 11.863281 5.921875 22.339843 14.964844 28.648437v52.757813l-28.21875 28.214843h-152.359375v-72.707031c0-19.042969-7.410156-36.886719-20.863282-50.238281-13.382812-13.289062-31.207031-20.605469-50.183593-20.605469-38.714844 0-70.296875 31.40625-71.03125 70.285157h-2.5625c-17.722657 0-34.355469 6.921874-46.835938 19.480468-12.214843 12.292969-18.878906 28.515625-18.769531 45.679688.039062 6.316406 1.007812 12.53125 2.820312 18.464844-17.625 4.722656-33.578124 14.675781-45.644531 28.632812-14.382812 16.632812-22.300781 37.914062-22.300781 59.921875 0 28.457031 13.03125 53.921875 33.4375 70.746094-8.605469 12.226562-16.730469 29.800781-16.730469 52.65625 0 45.269531 36.832031 82.097656 82.101563 82.097656h1.746094c7.386718.007813 13.996093 4.527344 16.839843 11.511719 12.738281 31.304687 42.5625 51.535156 75.984375 51.535156.9375 0 1.871094-.015625 2.78125-.042969 21.445313-.65625 41.460938-9.660156 56.359375-25.347656 14.734375-15.515625 22.847657-35.855469 22.847657-57.265625 0-11.019531-8.933594-19.953125-19.953126-19.953125-11.019531 0-19.953124 8.933594-19.953124 19.953125 0 22.875-18.175782 42.042969-40.53125 42.726562-.515626.015626-1.03125.023438-1.554688.023438-17.109375 0-32.425781-10.46875-39.015625-26.667969-8.984375-22.074219-30.085937-36.355469-53.789063-36.378906h-1.765624c-23.261719 0-42.191407-18.929687-42.191407-42.191406 0-16.347657 7.339844-27.902344 13.039063-34.414063 7.054687 1.746094 14.425781 2.679688 22.011718 2.679688 11.019532 0 19.953126-8.933594 19.953126-19.953125s-8.933594-19.953125-19.953126-19.953125c-28.539062 0-51.757812-23.21875-51.757812-51.757813 0-25.292969 18.804688-47.28125 43.695312-51.136719l19.648438-2.992187c7.660156-1.167969 13.949219-6.664063 16.136719-14.097656 2.183593-7.433594-.128907-15.460938-5.941407-20.589844-5.304687-4.679687-8.371093-11.410156-8.417968-18.457031-.039063-6.460938 2.507812-12.605469 7.171875-17.300782 4.933593-4.964843 11.515625-7.699218 18.527343-7.699218h4.050782c21.179687 0 38.410156-17.230469 38.410156-38.410156v-.113282c0-17.515625 13.96875-31.765625 31.136719-31.765625 17.460937 0 31.136719 13.589844 31.136719 30.9375v272.367188c0 11.019531 8.933593 19.953125 19.953124 19.953125.804688 0 1.59375-.0625 2.375-.152344.207032.003906.410157.03125.617188.03125h170.320312l28.21875 28.21875v54.324219c-9.601562 6.222656-15.960937 17.023437-15.960937 29.320312 0 19.285157 15.632813 34.917969 34.917969 34.917969s34.917968-15.632812 34.917968-34.917969c0-11.425781-5.488281-21.566406-13.96875-27.9375v-63.972656c0-5.292969-2.101562-10.367187-5.839843-14.109375l-39.910157-39.910156c-3.742187-3.738282-8.816406-5.84375-14.109374-5.84375h-161.625v-49.882813zm0 0" fill="url(#a)"/></svg>