<svg id="_x33_0" enable-background="new 0 0 64 64" height="512" viewBox="0 0 64 64" width="512" xmlns="http://www.w3.org/2000/svg" xmlns:xlink="http://www.w3.org/1999/xlink"><linearGradient id="SVGID_1_" gradientUnits="userSpaceOnUse" x1="32" x2="32" y1="63" y2="1"><stop offset="0" stop-color="#9f2fff"/><stop offset="1" stop-color="#0bb1d3"/></linearGradient><path d="m17 24c0 .552-.448 1-1 1s-1-.448-1-1 .448-1 1-1 1 .448 1 1zm4 0c0 2.757-2.243 5-5 5s-5-2.243-5-5 2.243-5 5-5 5 2.243 5 5zm-2 0c0-1.654-1.346-3-3-3s-3 1.346-3 3 1.346 3 3 3 3-1.346 3-3zm11-1c-.552 0-1 .448-1 1s.448 1 1 1 1-.448 1-1-.448-1-1-1zm5 1c0 2.757-2.243 5-5 5s-5-2.243-5-5 2.243-5 5-5 5 2.243 5 5zm-2 0c0-1.654-1.346-3-3-3s-3 1.346-3 3 1.346 3 3 3 3-1.346 3-3zm-16-23h12c6.617 0 12 5.383 12 12v4.131c2.4 1.38 4 3.974 4 6.869 0 3.915-2.922 7.285-6.798 7.838l-.47.067c-.716.674-1.673 1.095-2.732 1.095h-24c-1.059 0-2.016-.421-2.732-1.095l-.469-.067c-.272-.038-.538-.094-.799-.16v2.322c0 2.757 2.243 5 5 5h5.171c-.11-.312-.171-.649-.171-1 0-1.654 1.346-3 3-3h6c1.654 0 3 1.346 3 3s-1.346 3-3 3h-14c-3.86 0-7-3.141-7-7v-3.131c-2.4-1.381-4-3.974-4-6.869s1.6-5.488 4-6.869v-4.131c0-6.617 5.383-12 12-12zm2 37c0 .552.449 1 1 1h6c.551 0 1-.448 1-1s-.449-1-1-1h-6c-.551 0-1 .448-1 1zm-12-21.678c.261-.066.527-.121.798-.16l.47-.067c.716-.674 1.673-1.095 2.732-1.095h5.437l-4.809-10.421c-2.778 1.779-4.628 4.885-4.628 8.421zm.062 13.294c-.031-.202-.062-.405-.062-.616v-10c0-.211.031-.414.062-.616-2.374.791-4.062 3.044-4.062 5.616 0 2.571 1.688 4.825 4.062 5.616zm29.938-10.616c0-1.103-.897-2-2-2h-24c-1.103 0-2 .897-2 2v10c0 1.103.897 2 2 2h24c1.103 0 2-.897 2-2zm1.938-.616c.031.202.062.405.062.616v10c0 .211-.031.414-.062.616 2.374-.791 4.062-3.044 4.062-5.616 0-2.571-1.688-4.825-4.062-5.616zm-4.566-13.805-4.809 10.421h5.437c1.059 0 2.016.421 2.732 1.095l.469.067c.271.039.537.095.798.16v-3.322c.001-3.536-1.849-6.642-4.627-8.421zm-5.372-1.579h-3v6c0 1.103-.897 2-2 2h-2c-1.103 0-2-.897-2-2v-6h-3c-1.265 0-2.471.246-3.586.676l5.226 11.324h8.72l5.226-11.324c-1.115-.43-2.321-.676-3.586-.676zm-7 6h2v-6h-2zm-21 49v-6c0-2.757 2.243-5 5-5h12.5l2.3-3.066c.438-.585 1.136-.934 1.867-.934 1.286 0 2.333 1.047 2.333 2.333v1.667h1c2.757 0 5 2.243 5 5v6c0 2.757-2.243 5-5 5h-20c-2.757 0-5-2.243-5-5zm2 0c0 1.654 1.346 3 3 3h20c1.654 0 3-1.346 3-3v-6c0-1.654-1.346-3-3-3h-3v-3.667c0-.287-.425-.43-.6-.2l-2.9 3.867h-13.5c-1.654 0-3 1.346-3 3zm10-3c0-1.654 1.346-3 3-3s3 1.346 3 3-1.346 3-3 3-3-1.346-3-3zm2 0c0 .552.449 1 1 1s1-.448 1-1-.449-1-1-1-1 .448-1 1zm6 0c0-1.654 1.346-3 3-3s3 1.346 3 3-1.346 3-3 3-3-1.346-3-3zm2 0c0 .552.449 1 1 1s1-.448 1-1-.449-1-1-1-1 .448-1 1zm-18 0c0-1.654 1.346-3 3-3s3 1.346 3 3-1.346 3-3 3-3-1.346-3-3zm2 0c0 .552.449 1 1 1s1-.448 1-1-.449-1-1-1-1 .448-1 1zm56-15v6c0 2.757-2.243 5-5 5h-12.5l-2.3 3.066c-.438.585-1.136.934-1.867.934-1.286 0-2.333-1.047-2.333-2.333v-1.667h-1c-2.757 0-5-2.243-5-5v-6c0-2.757 2.243-5 5-5h20c2.757 0 5 2.243 5 5zm-2 0c0-1.654-1.346-3-3-3h-20c-1.654 0-3 1.346-3 3v6c0 1.654 1.346 3 3 3h3v3.667c0 .288.427.43.6.2l2.9-3.867h13.5c1.654 0 3-1.346 3-3zm-10 3c0 1.654-1.346 3-3 3s-3-1.346-3-3 1.346-3 3-3 3 1.346 3 3zm-2 0c0-.552-.449-1-1-1s-1 .448-1 1 .449 1 1 1 1-.448 1-1zm-6 0c0 1.654-1.346 3-3 3s-3-1.346-3-3 1.346-3 3-3 3 1.346 3 3zm-2 0c0-.552-.449-1-1-1s-1 .448-1 1 .449 1 1 1 1-.448 1-1zm18 0c0 1.654-1.346 3-3 3s-3-1.346-3-3 1.346-3 3-3 3 1.346 3 3zm-2 0c0-.552-.449-1-1-1s-1 .448-1 1 .449 1 1 1 1-.448 1-1z" fill="url(#SVGID_1_)"/></svg>