<svg height="512" viewBox="0 0 64 64" width="512" xmlns="http://www.w3.org/2000/svg"><g id="Robot-2" data-name="Robot"><path d="m55 10h-2v4h2 4 2v-4h-2z" fill="#9bc9ff"/><path d="m51 41h-38a10 10 0 0 0 0 20h38a10 10 0 0 0 0-20zm0 16h-38a6 6 0 0 1 0-12h38a6 6 0 0 1 0 12z" fill="#9bc9ff"/><path d="m53 51a6 6 0 1 0 -6 6 6 6 0 0 0 6-6zm-6 2a2 2 0 1 1 2-2 2.006 2.006 0 0 1 -2 2z" fill="#9bc9ff"/><path d="m18 33h28a2.006 2.006 0 0 0 2-2v-18a2.006 2.006 0 0 0 -2-2h-28a2.006 2.006 0 0 0 -2 2v18a2.006 2.006 0 0 0 2 2zm2-14a4 4 0 0 1 4-4h16a4 4 0 0 1 4 4v2a4 4 0 0 1 -4 4h-16a4 4 0 0 1 -4-4z" fill="#9bc9ff"/><circle cx="37" cy="20" fill="#9bc9ff" r="2"/><path d="m38 51a6 6 0 1 0 -6 6 6 6 0 0 0 6-6zm-6 2a2 2 0 1 1 2-2 2.006 2.006 0 0 1 -2 2z" fill="#9bc9ff"/><path d="m35 5a2.006 2.006 0 0 0 -2-2h-2a2.006 2.006 0 0 0 -2 2v2h6z" fill="#9bc9ff"/><circle cx="27" cy="20" fill="#9bc9ff" r="2"/><path d="m23 51a6 6 0 1 0 -6 6 6 6 0 0 0 6-6zm-6 2a2 2 0 1 1 2-2 2.006 2.006 0 0 1 -2 2z" fill="#9bc9ff"/><path d="m9 14h2v-4h-2-4-2v4h2z" fill="#9bc9ff"/><g fill="#57a4ff"><path d="m40 14h-16a5.006 5.006 0 0 0 -5 5v2a5.006 5.006 0 0 0 5 5h16a5.006 5.006 0 0 0 5-5v-2a5.006 5.006 0 0 0 -5-5zm3 7a3 3 0 0 1 -3 3h-16a3 3 0 0 1 -3-3v-2a3 3 0 0 1 3-3h16a3 3 0 0 1 3 3z"/><path d="m27 17a3 3 0 1 0 3 3 3 3 0 0 0 -3-3zm0 4a1 1 0 1 1 1-1 1 1 0 0 1 -1 1z"/><path d="m37 17a3 3 0 1 0 3 3 3 3 0 0 0 -3-3zm0 4a1 1 0 1 1 1-1 1 1 0 0 1 -1 1z"/><path d="m28 28h8v2h-8z"/><path d="m22 28h2v2h-2z"/><path d="m40 28h2v2h-2z"/><path d="m6 51a7.008 7.008 0 0 0 7 7h38a7 7 0 0 0 0-14h-38a7.008 7.008 0 0 0 -7 7zm2 0a5.008 5.008 0 0 1 4.009-4.9 6.98 6.98 0 0 0 0 9.8 5.008 5.008 0 0 1 -4.009-4.9zm14 0a5 5 0 1 1 -5-5 5.006 5.006 0 0 1 5 5zm5 0a5 5 0 1 1 5 5 5.006 5.006 0 0 1 -5-5zm15 0a5 5 0 1 1 5 5 5.006 5.006 0 0 1 -5-5zm14 0a5.008 5.008 0 0 1 -4.009 4.9 6.98 6.98 0 0 0 0-9.8 5.008 5.008 0 0 1 4.009 4.9zm-13.89-5a6.979 6.979 0 0 0 0 10h-5.22a6.979 6.979 0 0 0 0-10zm-15 0a6.979 6.979 0 0 0 0 10h-5.22a6.979 6.979 0 0 0 0-10z"/><path d="m32 48a3 3 0 1 0 3 3 3 3 0 0 0 -3-3zm0 4a1 1 0 1 1 1-1 1 1 0 0 1 -1 1z"/><path d="m47 48a3 3 0 1 0 3 3 3 3 0 0 0 -3-3zm0 4a1 1 0 1 1 1-1 1 1 0 0 1 -1 1z"/><path d="m17 54a3 3 0 1 0 -3-3 3 3 0 0 0 3 3zm0-4a1 1 0 1 1 -1 1 1 1 0 0 1 1-1z"/><path d="m57 38a1 1 0 0 0 1-1v-6h1a1 1 0 0 0 1-1v-15h1a1 1 0 0 0 1-1v-4a1 1 0 0 0 -1-1h-1v-7h-2v7h-2v-7h-2v7h-1a1 1 0 0 0 -1 1v4a1 1 0 0 0 1 1h1v15a1 1 0 0 0 1 1h1v5h-11v-2h1a3 3 0 0 0 3-3v-18a3 3 0 0 0 -3-3h-5v-1a3 3 0 0 0 -3-3h-2v-1a3 3 0 0 0 -3-3h-2a3 3 0 0 0 -3 3v1h-2a3 3 0 0 0 -3 3v1h-5a3 3 0 0 0 -3 3v18a3 3 0 0 0 3 3h1v2h-11v-5h1a1 1 0 0 0 1-1v-15h1a1 1 0 0 0 1-1v-4a1 1 0 0 0 -1-1h-1v-7h-2v7h-2v-7h-2v7h-1a1 1 0 0 0 -1 1v4a1 1 0 0 0 1 1h1v15a1 1 0 0 0 1 1h1v6a1 1 0 0 0 1 1h12v2h-6a11 11 0 0 0 0 22h38a11 11 0 0 0 0-22h-6v-2zm-3-27h6v2h-6zm4 4v14h-2v-14zm-54-4h6v2h-6zm4 4v14h-2v-14zm22-10a1 1 0 0 1 1-1h2a1 1 0 0 1 1 1v1h-4zm-5 4a1 1 0 0 1 1-1h12a1 1 0 0 1 1 1v1h-14zm-8 22v-18a1 1 0 0 1 1-1h28a1 1 0 0 1 1 1v18a1 1 0 0 1 -1 1h-28a1 1 0 0 1 -1-1zm43 20a9.011 9.011 0 0 1 -9 9h-38a9 9 0 0 1 0-18h38a9.011 9.011 0 0 1 9 9zm-39-11v-6h22v6z"/></g></g></svg>