<svg height="512" viewBox="0 0 64 64" width="512" xmlns="http://www.w3.org/2000/svg"><g id="Speech_Recognition" data-name="Speech Recognition"><circle cx="59" cy="17" fill="#bddbff" r="2"/><circle cx="56" cy="7" fill="#bddbff" r="2"/><circle cx="56" cy="27" fill="#bddbff" r="2"/><path d="m45 27v2a2.006 2.006 0 0 1 -2 2h-22a2.006 2.006 0 0 1 -2-2v-2a2.006 2.006 0 0 1 2-2h22a2.006 2.006 0 0 1 2 2z" fill="#bddbff"/><path d="m43 57v2a2.006 2.006 0 0 1 -2 2h-18a2.006 2.006 0 0 1 -2-2v-2a2.006 2.006 0 0 1 2-2h18a2.006 2.006 0 0 1 2 2z" fill="#bddbff"/><path d="m21.05 31h21.9a10.995 10.995 0 0 1 -21.9 0z" fill="#bddbff"/><path d="m34 49.9v5.1h-4v-5.1a20.05 20.05 0 0 0 4 0z" fill="#bddbff"/><path d="m34 40.82v5.05a15.45 15.45 0 0 1 -4 0v-5.05a11.2 11.2 0 0 0 4 0z" fill="#bddbff"/><circle cx="8" cy="7" fill="#bddbff" r="2"/><circle cx="8" cy="27" fill="#bddbff" r="2"/><circle cx="5" cy="17" fill="#bddbff" r="2"/><g fill="#3d9ae2"><path d="m49.887 29a3.027 3.027 0 0 0 -2.987 2.713 14.978 14.978 0 0 1 -11.9 12.978v-3.081a11.93 11.93 0 0 0 8.844-9.746 2.994 2.994 0 0 0 2.156-2.864v-2a3 3 0 0 0 -2-2.816v-10.184a12 12 0 0 0 -24 0v10.184a3 3 0 0 0 -2 2.816v2a2.993 2.993 0 0 0 2.16 2.865 11.882 11.882 0 0 0 8.84 9.751v3.075a14.978 14.978 0 0 1 -11.9-12.978 3.005 3.005 0 0 0 -5.234-1.708 2.94 2.94 0 0 0 -.74 2.277 20.94 20.94 0 0 0 17.874 18.483v3.235h-6a3 3 0 0 0 -3 3v2a3 3 0 0 0 3 3h18a3 3 0 0 0 3-3v-2a3 3 0 0 0 -3-3h-6v-3.235a20.94 20.94 0 0 0 17.877-18.484 2.939 2.939 0 0 0 -.74-2.276 3.026 3.026 0 0 0 -2.25-1.005zm-17.887-25a9.981 9.981 0 0 1 7.981 4h-4.981v2h6.159a9.843 9.843 0 0 1 .639 2h-6.798v2h7v2h-7v2h7v2h-7v2h7v2h-20v-2h7v-2h-7v-2h7v-2h-7v-2h7v-2h-6.8a9.843 9.843 0 0 1 .639-2h6.161v-2h-4.981a9.981 9.981 0 0 1 7.981-4zm-12 23a1 1 0 0 1 1-1h22a1 1 0 0 1 1 1v2a1 1 0 0 1 -1 1h-22a1 1 0 0 1 -1-1zm2.208 5h19.582a9.991 9.991 0 0 1 -19.582 0zm8.792 9.953c.33.027.663.047 1 .047s.669-.021 1-.049v3c-.332.022-.663.047-1 .047s-.668-.025-1-.047zm11 15.047v2a1 1 0 0 1 -1 1h-18a1 1 0 0 1 -1-1v-2a1 1 0 0 1 1-1h18a1 1 0 0 1 1 1zm-9-3h-2v-3.047c.333.016.663.047 1 .047s.667-.031 1-.047zm-1-5a18.965 18.965 0 0 1 -18.889-16.934.929.929 0 0 1 .24-.725 1.006 1.006 0 0 1 1.759.6 17 17 0 0 0 33.78 0 1.006 1.006 0 0 1 1.759-.6.928.928 0 0 1 .24.724 18.965 18.965 0 0 1 -18.889 16.935z"/><path d="m50.707 13.707 3-3-1.414-1.414-2.707 2.707h-3.586v2h4a1 1 0 0 0 .707-.293z"/><path d="m52.293 24.707 1.414-1.414-3-3a1 1 0 0 0 -.707-.293h-4v2h3.586z"/><path d="m46 16h8v2h-8z"/><path d="m56 10a3 3 0 1 0 -3-3 3 3 0 0 0 3 3zm0-4a1 1 0 1 1 -1 1 1 1 0 0 1 1-1z"/><path d="m59 14a3 3 0 1 0 3 3 3 3 0 0 0 -3-3zm0 4a1 1 0 1 1 1-1 1 1 0 0 1 -1 1z"/><path d="m56 24a3 3 0 1 0 3 3 3 3 0 0 0 -3-3zm0 4a1 1 0 1 1 1-1 1 1 0 0 1 -1 1z"/><path d="m13.293 13.707a1 1 0 0 0 .707.293h4v-2h-3.586l-2.707-2.707-1.414 1.414z"/><path d="m10.293 23.293 1.414 1.414 2.707-2.707h3.586v-2h-4a1 1 0 0 0 -.707.293z"/><path d="m10 16h8v2h-8z"/><path d="m8 10a3 3 0 1 0 -3-3 3 3 0 0 0 3 3zm0-4a1 1 0 1 1 -1 1 1 1 0 0 1 1-1z"/><path d="m8 17a3 3 0 1 0 -3 3 3 3 0 0 0 3-3zm-4 0a1 1 0 1 1 1 1 1 1 0 0 1 -1-1z"/><path d="m8 24a3 3 0 1 0 3 3 3 3 0 0 0 -3-3zm0 4a1 1 0 1 1 1-1 1 1 0 0 1 -1 1z"/><path d="m27.333 36.217a6.959 6.959 0 0 0 2.334 1.383l.666-1.887a4.951 4.951 0 0 1 -1.666-.988z"/><path d="m38.063 34.5-1.731-1a5.021 5.021 0 0 1 -4.332 2.5v2a7.027 7.027 0 0 0 6.063-3.5z"/></g></g></svg>