<svg height="480pt" viewBox="0 -8 480 480" width="480pt" xmlns="http://www.w3.org/2000/svg"><path d="m104 264h32v80h-32zm0 0" fill="#55c9f4"/><path d="m473.921875 40h-467.84375l3.761719-10.640625c4.511718-12.792969 16.597656-21.351563 30.160156-21.359375h400c13.5625.007812 25.648438 8.566406 30.160156 21.359375zm0 0" fill="#55c9f4"/><path d="m184 280h32v64h-32zm0 0" fill="#55c9f4"/><path d="m264 248h32v96h-32zm0 0" fill="#55c9f4"/><path d="m123.28125 136-16-16h20.71875c4.417969 0 8-3.582031 8-8 0-30.929688-25.070312-56-56-56s-56 25.070312-56 56 25.070312 56 56 56c4.417969 0 8-3.582031 8-8v-36.71875l26.320312 26.398438c1.523438 1.472656 3.558594 2.304687 5.679688 2.320312h48v-16zm0 0" fill="#55c9f4"/><path d="m344 200h32v144h-32zm0 0" fill="#55c9f4"/><path d="m70.398438 159.03125c-23.539063-4.804688-39.898438-26.277344-38.289063-50.25 1.613281-23.972656 20.699219-43.058594 44.671875-44.671875 23.972656-1.609375 45.445312 14.75 50.25 38.289063l1.960938 9.601562h-48.992188v48.992188zm0 0" fill="#55c9f4"/><path d="m168 136v16h-48c-2.121094-.015625-4.15625-.847656-5.679688-2.320312l-26.320312-26.398438v36.71875c0 4.417969-3.582031 8-8 8-30.929688 0-56-25.070312-56-56s25.070312-56 56-56 56 25.070312 56 56c0 4.417969-3.582031 8-8 8h-20.71875l16 16zm0 0" fill="#55c9f4"/><g fill="#006d95"><path d="m440 0h-400c-22.082031.0273438-39.9726562 17.917969-40 40v336c0 4.417969 3.582031 8 8 8h69.289062l-5.289062 79.472656 16 1.054688 2.671875-40.527344h298.65625l2.671875 40.527344 16-1.054688-5.289062-79.472656h69.289062c4.417969 0 8-3.582031 8-8v-336c-.027344-22.082031-17.917969-39.9726562-40-40zm-400 16h400c10.167969.011719 19.230469 6.417969 22.632812 16h-445.265624c3.402343-9.582031 12.464843-15.988281 22.632812-16zm348.265625 392h-296.53125l1.601563-24h293.335937zm75.734375-40h-448v-320h448zm0 0"/><path d="m216 236.6875-54.34375-54.34375c-3.125-3.121094-8.1875-3.121094-11.3125 0l-108 108 11.3125 11.3125 102.34375-102.34375 54.34375 54.34375c3.125 3.121094 8.1875 3.121094 11.3125 0l138.34375-138.34375v20.6875h16v-40c0-3.234375-1.949219-6.152344-4.9375-7.390625-.972656-.386719-2.015625-.570313-3.0625-.546875v-.0625h-40v16h20.6875zm0 0"/><path d="m136 256h-32c-4.417969 0-8 3.582031-8 8v80c0 4.417969 3.582031 8 8 8h32c4.417969 0 8-3.582031 8-8v-80c0-4.417969-3.582031-8-8-8zm-8 80h-16v-64h16zm0 0"/><path d="m216 272h-32c-4.417969 0-8 3.582031-8 8v64c0 4.417969 3.582031 8 8 8h32c4.417969 0 8-3.582031 8-8v-64c0-4.417969-3.582031-8-8-8zm-8 64h-16v-48h16zm0 0"/><path d="m296 240h-32c-4.417969 0-8 3.582031-8 8v96c0 4.417969 3.582031 8 8 8h32c4.417969 0 8-3.582031 8-8v-96c0-4.417969-3.582031-8-8-8zm-8 96h-16v-80h16zm0 0"/><path d="m344 192c-4.417969 0-8 3.582031-8 8v144c0 4.417969 3.582031 8 8 8h32c4.417969 0 8-3.582031 8-8v-144c0-4.417969-3.582031-8-8-8zm24 144h-16v-128h16zm0 0"/><path d="m80 168c4.417969 0 8-3.582031 8-8v-36.6875l26.34375 26.34375c1.5 1.5 3.535156 2.34375 5.65625 2.34375h48v-16h-44.6875l-16-16h20.6875c4.417969 0 8-3.582031 8-8 0-30.929688-25.070312-56-56-56s-56 25.070312-56 56 25.070312 56 56 56zm0-96c19 .019531 35.375 13.386719 39.199219 32h-39.199219c-4.417969 0-8 3.582031-8 8v39.199219c-20.140625-4.089844-33.902344-22.773438-31.835938-43.21875 2.0625-20.445313 19.285157-36 39.835938-35.980469zm0 0"/><path d="m176 112h16v16h-16zm0 0"/><path d="m200 112h32v16h-32zm0 0"/><path d="m176 136h56v16h-56zm0 0"/></g></svg>